<?xml version="1.0" encoding="UTF-8"?>
<svg version="1.1" xmlns="http://www.w3.org/2000/svg" width="598" height="598">
<path d="M0 0 C1.27854452 1.07588161 2.5657131 2.14156274 3.859375 3.19921875 C4.82230469 3.99682617 4.82230469 3.99682617 5.8046875 4.81054688 C6.38669922 5.28782227 6.96871094 5.76509766 7.56835938 6.25683594 C8.8359375 7.54492188 8.8359375 7.54492188 8.8359375 9.54492188 C9.4753125 9.81304687 10.1146875 10.08117187 10.7734375 10.35742188 C12.8359375 11.54492188 12.8359375 11.54492188 13.8359375 14.54492188 C14.4959375 14.54492188 15.1559375 14.54492188 15.8359375 14.54492188 C17.37445516 16.26444161 18.84325509 18.04679685 20.2734375 19.85742188 C23.15390474 23.55848734 23.15390474 23.55848734 26.31689453 27.0090332 C40.88765973 41.74138355 51.29469649 63.49226006 58.8359375 82.54492188 C59.08142334 83.16286621 59.32690918 83.78081055 59.57983398 84.41748047 C67.74944204 105.50493503 72.30352545 128.9521322 72.8359375 151.54492188 C72.85640137 152.31835938 72.87686523 153.09179688 72.89794922 153.88867188 C74.25508733 212.03250634 53.38809191 267.42218746 13.453125 309.80273438 C12.58945312 310.70765625 11.72578125 311.61257813 10.8359375 312.54492188 C10.07539063 313.34671875 9.31484375 314.14851563 8.53125 314.97460938 C3.00819493 320.65490444 -2.91261431 325.68446088 -9.1640625 330.54492188 C-9.70772461 330.9703125 -10.25138672 331.39570313 -10.81152344 331.83398438 C-21.01665578 339.76165106 -31.78746518 346.42849757 -43.1640625 352.54492188 C-43.84629883 352.91214355 -44.52853516 353.27936523 -45.23144531 353.65771484 C-70.98681479 367.23700697 -101.61917654 375.5737438 -130.80078125 375.74804688 C-131.59421936 375.75510651 -132.38765747 375.76216614 -133.20513916 375.7694397 C-166.79066419 376.00028637 -166.79066419 376.00028637 -183.1640625 372.54492188 C-184.59347168 372.24690674 -184.59347168 372.24690674 -186.05175781 371.94287109 C-206.53555274 367.53082427 -225.73527242 360.49093197 -244.1640625 350.54492188 C-245.8965625 349.62453125 -245.8965625 349.62453125 -247.6640625 348.68554688 C-297.66367065 321.18576239 -333.1739249 274.42960631 -349.1484375 219.97924805 C-364.73041398 164.73356685 -357.87832714 105.85526745 -330.4140625 55.48242188 C-317.02696424 31.62566099 -298.77749622 10.31449385 -277.1640625 -6.45507812 C-276.26558594 -7.17050781 -275.36710937 -7.8859375 -274.44140625 -8.62304688 C-199.80759726 -66.62593832 -95.37752982 -67.16336988 0 0 Z " fill="#15DDCE" transform="translate(442.1640625,128.455078125)"/>
<path d="M0 0 C1.27854452 1.07588161 2.5657131 2.14156274 3.859375 3.19921875 C4.82230469 3.99682617 4.82230469 3.99682617 5.8046875 4.81054688 C6.38669922 5.28782227 6.96871094 5.76509766 7.56835938 6.25683594 C8.8359375 7.54492188 8.8359375 7.54492188 8.8359375 9.54492188 C9.4753125 9.81304687 10.1146875 10.08117187 10.7734375 10.35742188 C12.8359375 11.54492188 12.8359375 11.54492188 13.8359375 14.54492188 C14.4959375 14.54492188 15.1559375 14.54492188 15.8359375 14.54492188 C17.37445516 16.26444161 18.84325509 18.04679685 20.2734375 19.85742188 C23.15390474 23.55848734 23.15390474 23.55848734 26.31689453 27.0090332 C40.88765973 41.74138355 51.29469649 63.49226006 58.8359375 82.54492188 C59.12710449 83.25567871 59.41827148 83.96643555 59.71826172 84.69873047 C60.48465815 86.62446938 61.16676883 88.58327789 61.8359375 90.54492188 C61.5059375 91.20492187 61.1759375 91.86492187 60.8359375 92.54492188 C60.36285156 91.92746094 59.88976562 91.31 59.40234375 90.67382812 C44.29082308 71.32047709 26.06143265 60.6318514 1.8359375 56.54492188 C-3.21458468 56.14910125 -8.22509452 56.11449881 -13.2890625 56.16992188 C-14.30735641 56.17789795 -14.30735641 56.17789795 -15.34622192 56.18603516 C-55.08972406 56.54959076 -91.32734557 72.23982545 -120.1640625 99.54492188 C-121.55440864 100.75956493 -122.95001812 101.96821747 -124.3515625 103.16992188 C-130.83456699 108.83278724 -136.55893033 115.02613263 -142.1640625 121.54492188 C-143.14524325 122.67434103 -144.12706962 123.80319948 -145.109375 124.93164062 C-156.05594169 137.51443097 -166.88302893 150.18984516 -177.30078125 163.21679688 C-183.274794 170.63873013 -189.6074054 177.64039373 -196.1640625 184.54492188 C-196.66921387 185.08407227 -197.17436523 185.62322266 -197.69482422 186.17871094 C-215.83482502 205.46079552 -237.94300277 220.90884538 -264.1640625 226.54492188 C-264.99679687 226.72603516 -265.82953125 226.90714844 -266.6875 227.09375 C-287.57263153 231.28569426 -308.49424404 229.57787393 -326.50292969 217.68652344 C-340.68823695 207.93777318 -349.12915283 196.39397974 -355.1640625 180.54492188 C-355.51315674 179.76753662 -355.86225098 178.99015137 -356.22192383 178.18920898 C-357.24387562 175.32091153 -357.42231728 173.14395229 -357.4296875 170.10742188 C-357.43395752 169.05868896 -357.43822754 168.00995605 -357.44262695 166.92944336 C-357.43320068 165.81255127 -357.42377441 164.69565918 -357.4140625 163.54492188 C-357.40656982 162.38226807 -357.39907715 161.21961426 -357.39135742 160.02172852 C-356.67255489 101.35700141 -334.18804751 47.96511361 -292.54296875 6.68701172 C-287.67571172 1.9690472 -282.51570991 -2.30280701 -277.1640625 -6.45507812 C-276.26558594 -7.17050781 -275.36710937 -7.8859375 -274.44140625 -8.62304688 C-199.80759726 -66.62593832 -95.37752982 -67.16336988 0 0 Z " fill="#2D84FE" transform="translate(442.1640625,128.455078125)"/>
<path d="M0 0 C-2 2 -2 2 -3.99609375 2.1953125 C-5.20458984 2.16050781 -5.20458984 2.16050781 -6.4375 2.125 C-7.78134766 2.10179687 -7.78134766 2.10179687 -9.15234375 2.078125 C-11.01955495 2.02689836 -12.88674367 1.97484415 -14.75390625 1.921875 C-21.11320118 1.81332374 -26.8164977 2.54997917 -33 4 C-33.96292969 4.185625 -34.92585937 4.37125 -35.91796875 4.5625 C-42.90292857 5.90899828 -49.52102316 7.70518672 -56.10546875 10.4140625 C-58 11 -58 11 -62 11 C-64.0065438 12.32346506 -66.00628175 13.65729179 -68 15 C-69.66362417 15.34820041 -71.32995171 15.68404492 -73 16 C-73.474375 16.474375 -73.94875 16.94875 -74.4375 17.4375 C-76.64627614 19.64627614 -79.03977984 20.07130348 -82 21 C-86.34752244 23.00007904 -86.34752244 23.00007904 -90 26 C-93.69230769 29 -93.69230769 29 -96 29 C-98.12153042 30.85633912 -99.41328692 32.61993038 -101 35 C-101.61875 35.12375 -102.2375 35.2475 -102.875 35.375 C-106.01846552 36.29954868 -107.10808024 38.41437633 -109 41 C-111 43 -111 43 -113.25 43.6875 C-116.58524215 45.27932012 -118.04000898 47.22488813 -120.3203125 50.06640625 C-122.13063365 52.15038059 -124.07198185 53.85431905 -126.1875 55.625 C-129.23403126 58.20592932 -130.96935875 60.55673874 -133 64 C-134.74189943 65.57400551 -136.55257906 67.04291944 -138.37109375 68.52734375 C-140.45382471 70.41029236 -141.57994494 72.59208055 -143 75 C-144.03685917 75.90523715 -145.10170023 76.77908623 -146.1875 77.625 C-147.115625 78.40875 -148.04375 79.1925 -149 80 C-149 80.99 -149 81.98 -149 83 C-149.59683594 83.2371875 -150.19367188 83.474375 -150.80859375 83.71875 C-153.48403443 85.28300052 -154.45968247 86.86710506 -156.0625 89.5 C-157.95413346 92.59083876 -158.91546897 93.94364598 -162 96 C-162.474375 96.99 -162.94875 97.98 -163.4375 99 C-165.12235678 102.23492501 -165.81778488 102.62104011 -169 104 C-169.495 105.485 -169.495 105.485 -170 107 C-170.66 107 -171.32 107 -172 107 C-172.268125 107.804375 -172.53625 108.60875 -172.8125 109.4375 C-173.204375 110.283125 -173.59625 111.12875 -174 112 C-174.99 112.33 -175.98 112.66 -177 113 C-178.20882096 115.00016466 -178.20882096 115.00016466 -179 117 C-179.66 117 -180.32 117 -181 117 C-181 118.65 -181 120.3 -181 122 C-181.598125 122.268125 -182.19625 122.53625 -182.8125 122.8125 C-186.31088537 124.71162349 -187.73345454 126.20036361 -189 130 C-189.969375 130.61875 -190.93875 131.2375 -191.9375 131.875 C-195.16730853 133.69683663 -195.16730853 133.69683663 -196.0625 136.6875 C-196.371875 137.450625 -196.68125 138.21375 -197 139 C-199.625 139.8125 -199.625 139.8125 -202 140 C-202.66 142.31 -203.32 144.62 -204 147 C-205.0725 147.0825 -206.145 147.165 -207.25 147.25 C-211.33500175 148.06700035 -212.34891677 148.9561637 -215 152 C-215.66 152 -216.32 152 -217 152 C-217.495 152.99 -217.495 152.99 -218 154 C-219.84765625 155.0703125 -219.84765625 155.0703125 -222.0625 156.125 C-223.16271484 156.65480469 -223.16271484 156.65480469 -224.28515625 157.1953125 C-224.85105469 157.46085938 -225.41695312 157.72640625 -226 158 C-224.74460266 154.23380799 -223.3616645 153.60307216 -220.125 151.375 C-204.77115546 140.45014908 -190.82329862 127.60001065 -179.171875 112.7421875 C-176.51831392 109.39182801 -173.7341642 106.16847173 -170.9375 102.9375 C-167.5698939 99.03463831 -164.25219303 95.11354473 -161.0625 91.0625 C-156.06471485 84.73685143 -150.7313292 78.69998413 -145.42578125 72.6328125 C-144.28986704 71.33195732 -143.15958445 70.02618515 -142.03125 68.71875 C-140.3703878 66.7973604 -138.69086512 64.89505858 -137 63 C-136.1440625 62.03964844 -135.288125 61.07929688 -134.40625 60.08984375 C-97.98434205 19.66195535 -54.42345319 -1.24254459 0 0 Z " fill="#21F3AB" transform="translate(439,184)"/>
<path d="M0 0 C0 3 0 3 -1 5 C-1.66 5 -2.32 5 -3 5 C-1.125 1.125 -1.125 1.125 0 0 Z M-5 3 C-4.34 3.99 -3.68 4.98 -3 6 C-3.66 6.33 -4.32 6.66 -5 7 C-5.33 7.99 -5.66 8.98 -6 10 C-6.66 10 -7.32 10 -8 10 C-8.268125 10.804375 -8.53625 11.60875 -8.8125 12.4375 C-9.204375 13.283125 -9.59625 14.12875 -10 15 C-10.99 15.33 -11.98 15.66 -13 16 C-14.20882096 18.00016466 -14.20882096 18.00016466 -15 20 C-15.66 20 -16.32 20 -17 20 C-17 21.65 -17 23.3 -17 25 C-17.8971875 25.4021875 -17.8971875 25.4021875 -18.8125 25.8125 C-22.31088537 27.71162349 -23.73345454 29.20036361 -25 33 C-25.969375 33.61875 -26.93875 34.2375 -27.9375 34.875 C-31.16730853 36.69683663 -31.16730853 36.69683663 -32.0625 39.6875 C-32.371875 40.450625 -32.68125 41.21375 -33 42 C-35.625 42.8125 -35.625 42.8125 -38 43 C-38.66 45.31 -39.32 47.62 -40 50 C-41.0725 50.0825 -42.145 50.165 -43.25 50.25 C-47.33500175 51.06700035 -48.34891677 51.9561637 -51 55 C-51.66 55 -52.32 55 -53 55 C-53.33 55.66 -53.66 56.32 -54 57 C-55.84765625 58.0703125 -55.84765625 58.0703125 -58.0625 59.125 C-58.79597656 59.47820312 -59.52945313 59.83140625 -60.28515625 60.1953125 C-61.13400391 60.59363281 -61.13400391 60.59363281 -62 61 C-60.74460266 57.23380799 -59.3616645 56.60307216 -56.125 54.375 C-39.76964534 42.73753611 -25.26055112 28.91894138 -13 13 C-11.48170596 11.10213245 -9.96094917 9.20623195 -8.4375 7.3125 C-7.29103301 5.87550532 -6.1449484 4.43820494 -5 3 Z " fill="#14EFB4" transform="translate(275,281)"/>
<path d="M0 0 C-2 2 -2 2 -3.99609375 2.1953125 C-5.20458984 2.16050781 -5.20458984 2.16050781 -6.4375 2.125 C-7.33339844 2.10953125 -8.22929687 2.0940625 -9.15234375 2.078125 C-11.01955495 2.02689836 -12.88674367 1.97484415 -14.75390625 1.921875 C-21.11320118 1.81332374 -26.8164977 2.54997917 -33 4 C-34.44439453 4.2784375 -34.44439453 4.2784375 -35.91796875 4.5625 C-42.90292857 5.90899828 -49.52102316 7.70518672 -56.10546875 10.4140625 C-58 11 -58 11 -62 11 C-64.0065438 12.32346506 -66.00628175 13.65729179 -68 15 C-69.66362417 15.34820041 -71.32995171 15.68404492 -73 16 C-73.515625 16.53625 -74.03125 17.0725 -74.5625 17.625 C-75.2740625 18.305625 -75.2740625 18.305625 -76 19 C-78.1875 18.6875 -78.1875 18.6875 -80 18 C-79.401875 17.731875 -78.80375 17.46375 -78.1875 17.1875 C-76.00220521 16.16686685 -76.00220521 16.16686685 -74.79296875 14.609375 C-72.24075319 12.31849742 -69.2840739 11.27278938 -66.125 10.0625 C-65.4537207 9.80235107 -64.78244141 9.54220215 -64.09082031 9.27416992 C-42.66770238 1.08997218 -22.81679122 -0.52093131 0 0 Z " fill="#3AF2BC" transform="translate(439,184)"/>
<path d="M0 0 C0.66 0.33 1.32 0.66 2 1 C0.3990869 2.15037471 -1.20585225 3.29514816 -2.8125 4.4375 C-3.70582031 5.07558594 -4.59914063 5.71367187 -5.51953125 6.37109375 C-8 8 -8 8 -11 9 C-11.66 9.66 -12.32 10.32 -13 11 C-16.69230769 14 -16.69230769 14 -19 14 C-21.12153042 15.85633912 -22.41328692 17.61993038 -24 20 C-24.61875 20.12375 -25.2375 20.2475 -25.875 20.375 C-29.01846552 21.29954868 -30.10808024 23.41437633 -32 26 C-34 28 -34 28 -36.375 28.8125 C-39.60267436 30.2726384 -40.97218952 32.14604451 -43 35 C-43.66 34.67 -44.32 34.34 -45 34 C-43.417974 29.80763111 -40.32922199 27.31827665 -37 24.5 C-36.38987061 23.98099121 -35.77974121 23.46198242 -35.15112305 22.92724609 C-24.83442619 14.35129021 -12.53318441 5.04808816 0 0 Z " fill="#31F4AF" transform="translate(362,199)"/>
<path d="M0 0 C14.44674429 -1.56274878 32.31578922 5.64211947 43.78466797 14.35595703 C47.39368931 17.3698245 50.71568358 20.63521028 54 24 C54.94273084 24.94528826 55.88669544 25.88934809 56.83203125 26.83203125 C57.54746094 27.54746094 58.26289063 28.26289063 59 29 C58.67 29.66 58.34 30.32 58 31 C54.45513271 28.11915684 51.14413056 25.34133681 48.375 21.6875 C46.24569188 18.80971947 46.24569188 18.80971947 43.1875 18.125 C42.465625 18.08375 41.74375 18.0425 41 18 C40.505 16.515 40.505 16.515 40 15 C37.49552484 13.78130071 37.49552484 13.78130071 35 13 C35 12.34 35 11.68 35 11 C33.72962891 10.58427734 33.72962891 10.58427734 32.43359375 10.16015625 C27.7630766 8.58206342 23.15369104 6.84473298 18.53515625 5.12109375 C15.00002326 4.00000738 11.67743214 3.4268845 8 3 C4.48374486 2.44059577 3.03823877 2.02549251 0 0 Z " fill="#28F0C8" transform="translate(440,185)"/>
<path d="M0 0 C1.88458684 3.62350514 3.47020407 7.36702663 5.0625 11.125 C6.93971423 15.60410989 6.93971423 15.60410989 9 20 C8.25 23.5625 8.25 23.5625 7 27 C6.01 27.33 5.02 27.66 4 28 C1.88505284 22.50483162 1.11355859 16.98432299 0.3125 11.1875 C0.17005859 10.22134766 0.02761719 9.25519531 -0.11914062 8.25976562 C-0.24869141 7.34259766 -0.37824219 6.42542969 -0.51171875 5.48046875 C-0.62990967 4.64410889 -0.74810059 3.80774902 -0.86987305 2.94604492 C-0.91281494 2.3038501 -0.95575684 1.66165527 -1 1 C-0.67 0.67 -0.34 0.34 0 0 Z " fill="#1CD6C9" transform="translate(86,305)"/>
<path d="M0 0 C2.27376292 4.96093728 3.78623966 9.67812773 5 15 C1.0747975 11.29909479 -1.94580156 7.45040344 -5 3 C-2.25 0 -2.25 0 0 0 Z " fill="#2F86FB" transform="translate(499,206)"/>
<path d="M0 0 C0.33 0.66 0.66 1.32 1 2 C3.10842728 2.80591989 3.10842728 2.80591989 5.625 3.4375 C16.53125 6.53125 16.53125 6.53125 20 10 C17.73386168 10.77056242 16.42628832 11.13279547 14.10888672 10.41088867 C13.47225098 10.0832251 12.83561523 9.75556152 12.1796875 9.41796875 C11.47972656 9.06283203 10.77976563 8.70769531 10.05859375 8.34179688 C9.33800781 7.96087891 8.61742187 7.57996094 7.875 7.1875 C7.14667969 6.81818359 6.41835937 6.44886719 5.66796875 6.06835938 C0.31029762 3.31029762 0.31029762 3.31029762 -2 1 C-1.34 0.67 -0.68 0.34 0 0 Z " fill="#22CCD7" transform="translate(200,477)"/>
<path d="M0 0 C1.32 0 2.64 0 4 0 C6 2 6 2 6.4375 4.9375 C7.04905609 8.26708317 7.56619687 8.85825324 10 11 C11.1875 13.1875 11.1875 13.1875 12 15 C11.01 15 10.02 15 9 15 C7.29013111 13.09522378 5.80454264 11.25065944 4.3125 9.1875 C3.68891602 8.36668945 3.68891602 8.36668945 3.05273438 7.52929688 C0 3.39381927 0 3.39381927 0 0 Z " fill="#27CFD7" transform="translate(124,411)"/>
<path d="M0 0 C-0.33 1.65 -0.66 3.3 -1 5 C-1.66 4.67 -2.32 4.34 -3 4 C-5.13133988 4.71529279 -7.23235468 5.52221109 -9.3125 6.375 C-13.2114235 7.96657881 -16.83533982 9.32802856 -21 10 C-19.74907762 7.49815524 -18.78797842 7.23419454 -16.2890625 6.0546875 C-15.53882813 5.70019531 -14.78859375 5.34570312 -14.015625 4.98046875 C-13.22671875 4.61566406 -12.4378125 4.25085938 -11.625 3.875 C-10.45324219 3.31619141 -10.45324219 3.31619141 -9.2578125 2.74609375 C-3.38338484 0 -3.38338484 0 0 0 Z " fill="#12EABB" transform="translate(212,342)"/>
<path d="M0 0 C6.62549804 -0.71670051 12.28105754 0.40818999 18.5625 2.375 C19.27728516 2.59631592 19.99207031 2.81763184 20.72851562 3.0456543 C22.50895969 3.63047952 24.25827439 4.30834001 26 5 C26.33 5.66 26.66 6.32 27 7 C25.081875 6.566875 25.081875 6.566875 23.125 6.125 C17.24155441 4.81653655 11.33711695 3.55452093 5.390625 2.56640625 C3 2 3 2 0 0 Z " fill="#32F3C4" transform="translate(440,185)"/>
<path d="M0 0 C3.75019168 1.25006389 4.57518228 2.93331877 7 6 C7.886875 6.70125 8.77375 7.4025 9.6875 8.125 C12 10 12 10 13 13 C10 13 10 13 8.02734375 11.42578125 C7.33769531 10.72839844 6.64804688 10.03101563 5.9375 9.3125 C5.24527344 8.62800781 4.55304688 7.94351562 3.83984375 7.23828125 C1.92211129 4.90524367 0.96189176 2.84580411 0 0 Z " fill="#2ACED7" transform="translate(136,427)"/>
<path d="M0 0 C3.47775179 1.51553404 5.9557984 3.5773456 8.75 6.125 C9.94882813 7.21167969 9.94882813 7.21167969 11.171875 8.3203125 C11.77515625 8.87460937 12.3784375 9.42890625 13 10 C12.34 10.66 11.68 11.32 11 12 C9.16053461 10.38150935 7.32848583 8.75581169 5.5 7.125 C4.97535156 6.66480469 4.45070312 6.20460938 3.91015625 5.73046875 C2.56858245 4.52827924 1.28000815 3.26754054 0 2 C0 1.34 0 0.68 0 0 Z " fill="#33CFD8" transform="translate(151,443)"/>
<path d="M0 0 C3.90285767 1.58667578 6.33520982 4.13350481 9.25 7.125 C10.14203125 8.03507813 11.0340625 8.94515625 11.953125 9.8828125 C12.62859375 10.58148438 13.3040625 11.28015625 14 12 C13.67 12.66 13.34 13.32 13 14 C7.75027653 9.89962427 3.79037089 5.47035213 0 0 Z " fill="#1CF6C9" transform="translate(485,202)"/>
<path d="M0 0 C0.66 0 1.32 0 2 0 C2 0.66 2 1.32 2 2 C2.66 2 3.32 2 4 2 C4.5345256 3.24420647 5.05208611 4.49570936 5.5625 5.75 C5.85253906 6.44609375 6.14257812 7.1421875 6.44140625 7.859375 C7.07831803 10.30012784 6.80248831 11.6403655 6 14 C4.99515796 12.04414675 3.99626195 10.08523763 3 8.125 C2.1646875 6.48917969 2.1646875 6.48917969 1.3125 4.8203125 C0 2 0 2 0 0 Z " fill="#35D4D5" transform="translate(105,379)"/>
<path d="M0 0 C1.96301592 3.50538557 2.95902388 7.13351728 4 11 C3.67 11 3.34 11 3 11 C2.67 12.98 2.34 14.96 2 17 C1.67 17 1.34 17 1 17 C0.63917123 14.35491639 0.28604648 11.70920453 -0.0625 9.0625 C-0.16626953 8.30775391 -0.27003906 7.55300781 -0.37695312 6.77539062 C-0.62665638 4.85525872 -0.81790281 2.92771856 -1 1 C-0.67 0.67 -0.34 0.34 0 0 Z " fill="#44DECE" transform="translate(86,305)"/>
<path d="M0 0 C2.79872437 2.52788007 4.45773019 4.20411134 5 8 C3.35 8 1.7 8 0 8 C0 5.36 0 2.72 0 0 Z " fill="#0ADAC1" transform="translate(88,315)"/>
<path d="M0 0 C1.8125 0.0625 1.8125 0.0625 4 1 C5.8125 4.375 5.8125 4.375 7 8 C6.67 8.99 6.34 9.98 6 11 C4.99735282 9.35577799 3.99794896 7.70957779 3 6.0625 C2.443125 5.14597656 1.88625 4.22945313 1.3125 3.28515625 C0 1 0 1 0 0 Z " fill="#2FD2D7" transform="translate(114,397)"/>
<path d="M0 0 C0.99 0 1.98 0 3 0 C1.25 7.625 1.25 7.625 -1 11 C-2.0257259 6.58937864 -2.03684712 4.07369424 0 0 Z " fill="#28D4D6" transform="translate(503,350)"/>
<path d="M0 0 C3.93846154 3.32307692 3.93846154 3.32307692 4.25 6.75 C4.1675 7.4925 4.085 8.235 4 9 C3.01 9 2.02 9 1 9 C0.67 6.03 0.34 3.06 0 0 Z " fill="#23D4CF" transform="translate(93,343)"/>
<path d="M0 0 C0 0.66 0 1.32 0 2 C-1.6796875 3.5078125 -1.6796875 3.5078125 -3.875 5.125 C-4.95394531 5.93324219 -4.95394531 5.93324219 -6.0546875 6.7578125 C-8 8 -8 8 -10 8 C-8.76136033 4.28408098 -7.11164427 3.27681288 -4 1 C-2 0 -2 0 0 0 Z " fill="#2FD9D4" transform="translate(432,458)"/>
<path d="M0 0 C1.9453125 0.2421875 1.9453125 0.2421875 4.125 0.875 C4.84945312 1.07867187 5.57390625 1.28234375 6.3203125 1.4921875 C6.87460938 1.65976562 7.42890625 1.82734375 8 2 C8 2.66 8 3.32 8 4 C4.7 3.34 1.4 2.68 -2 2 C-1.34 1.34 -0.68 0.68 0 0 Z " fill="#37D0D6" transform="translate(241,494)"/>
<path d="M0 0 C2.95183101 2.95183101 3.08663988 5.95511947 4 10 C2 8.375 2 8.375 0 6 C-0.25 2.75 -0.25 2.75 0 0 Z " fill="#52A9F5" transform="translate(500,211)"/>
<path d="M0 0 C0.66 0 1.32 0 2 0 C2 0.66 2 1.32 2 2 C3.32 2.66 4.64 3.32 6 4 C6 4.99 6 5.98 6 7 C5.34 6.67 4.68 6.34 4 6 C4 5.34 4 4.68 4 4 C1.525 3.01 1.525 3.01 -1 2 C-0.67 1.34 -0.34 0.68 0 0 Z " fill="#4F90FA" transform="translate(449,136)"/>
<path d="M0 0 C1.32 0 2.64 0 4 0 C2.63016497 3.16115776 2.0109362 3.9927092 -1 6 C-1 3 -1 3 0 0 Z " fill="#3ADDD6" transform="translate(444,444)"/>
<path d="M0 0 C0 3 0 3 -2.5 5.6875 C-3.325 6.450625 -4.15 7.21375 -5 8 C-5.66 7.67 -6.32 7.34 -7 7 C-4.69 4.69 -2.38 2.38 0 0 Z " fill="#3D88FC" transform="translate(151,134)"/>
</svg>
